<?xml version="1.0" standalone="no"?>
<!DOCTYPE svg PUBLIC "-//W3C//DTD SVG 20010904//EN"
 "http://www.w3.org/TR/2001/REC-SVG-20010904/DTD/svg10.dtd">
<svg version="1.0" xmlns="http://www.w3.org/2000/svg"
 width="414.000000pt" height="238.000000pt" viewBox="0 0 414.000000 238.000000"
 preserveAspectRatio="xMidYMid meet">

<g transform="translate(0.000000,238.000000) scale(0.100000,-0.100000)"
fill="#000000" stroke="none">
<path d="M20 2367 c0 -11 23 -15 99 -20 101 -5 128 -13 169 -51 56 -50 56 -55
60 -529 l3 -438 112 3 112 3 3 509 2 508 263 -5 c331 -6 412 -23 563 -118 205
-130 324 -372 373 -759 l17 -135 118 -3 119 -3 -7 73 c-10 117 -52 280 -99
391 -125 295 -343 485 -642 558 -87 22 -111 23 -677 26 -500 3 -588 2 -588
-10z"/>
<path d="M2390 2365 c0 -12 14 -15 63 -15 136 -1 186 -25 227 -106 l25 -49 3
-433 3 -433 112 3 112 3 3 508 2 507 173 0 c427 0 579 -69 658 -300 28 -82 38
-307 19 -419 -16 -99 -68 -198 -131 -255 l-51 -46 71 0 c81 0 116 14 198 78
61 49 105 113 135 200 20 58 23 86 22 207 -1 150 -13 206 -69 301 -52 88 -184
180 -315 217 -145 42 -225 47 -752 47 -445 0 -508 -2 -508 -15z"/>
<path d="M1400 1355 c-14 -7 -47 -17 -75 -20 -50 -7 -115 -29 -115 -39 0 -3
10 -1 23 4 28 13 177 38 177 30 0 -3 -30 -46 -68 -95 -59 -78 -97 -115 -193
-187 -13 -10 -18 -18 -13 -18 14 0 87 53 146 105 48 43 170 175 130 141 -30
-26 -28 -13 8 39 17 24 30 46 30 49 0 10 -24 6 -50 -9z"/>
<path d="M2460 1355 c-14 -7 -54 -19 -90 -25 -76 -14 -106 -28 -140 -66 -23
-26 -22 -26 12 3 39 33 77 47 161 57 37 4 46 3 41 -7 -26 -45 -209 -247 -225
-247 -4 0 -21 -13 -37 -30 -34 -34 -30 -39 8 -10 14 11 33 20 43 20 10 0 16 4
13 9 -7 11 211 224 253 245 18 10 30 20 27 23 -3 3 -24 -6 -47 -21 -41 -28
-43 -20 -6 21 26 29 19 45 -13 28z"/>
<path d="M2606 1326 c14 -35 -65 -102 -160 -136 -41 -15 -46 -19 -23 -19 40
-1 149 51 175 84 23 29 29 69 12 80 -5 3 -7 0 -4 -9z"/>
<path d="M1454 1308 l-19 -23 23 19 c21 18 27 26 19 26 -2 0 -12 -10 -23 -22z"/>
<path d="M1546 1315 c15 -35 9 -89 -16 -140 -26 -54 -150 -185 -175 -185 -8 0
-15 -4 -15 -9 0 -17 -105 -54 -167 -59 -33 -2 -75 0 -92 6 -18 6 -29 7 -26 2
3 -4 28 -13 56 -19 106 -23 262 35 356 131 94 97 137 230 89 275 -18 17 -19
17 -10 -2z"/>
<path d="M2498 1148 c24 -24 12 -58 -35 -109 -27 -29 -52 -48 -60 -45 -8 3
-12 2 -9 -3 9 -14 -83 -49 -158 -61 -67 -11 -124 -6 -160 12 -13 7 -16 7 -12
-1 10 -16 74 -31 131 -31 144 0 309 88 331 176 7 29 -10 74 -28 74 -9 0 -9 -3
0 -12z"/>
<path d="M1775 1100 c3 -5 11 -10 16 -10 6 0 7 5 4 10 -3 6 -11 10 -16 10 -6
0 -7 -4 -4 -10z"/>
<path d="M3464 1095 c-10 -8 -16 -15 -11 -15 4 0 1 -13 -8 -30 -17 -33 -20
-60 -5 -60 6 0 10 7 10 17 0 9 12 32 26 50 29 38 21 63 -12 38z"/>
<path d="M1899 1074 c-7 -9 -12 -31 -10 -49 2 -25 -3 -37 -21 -49 -21 -15 -21
-16 -2 -16 30 0 44 19 44 60 0 20 5 41 12 48 15 15 44 16 51 2 3 -6 4 -5 3 2
-4 20 -61 22 -77 2z"/>
<path d="M2073 1079 c-29 -8 -73 -50 -73 -70 0 -4 10 -18 23 -31 12 -13 16
-17 10 -8 -32 41 -8 84 57 104 49 15 34 20 -17 5z"/>
<path d="M2777 1072 c-9 -9 -17 -28 -19 -42 -2 -14 -7 -31 -11 -38 -5 -7 -5
-11 0 -10 4 1 19 -4 33 -12 23 -12 24 -12 12 3 -19 23 -12 30 63 62 36 15 64
29 62 31 -2 2 -36 -9 -75 -25 -76 -31 -85 -28 -51 20 22 31 12 40 -14 11z"/>
<path d="M3360 1047 c-33 -56 -41 -75 -32 -81 13 -8 59 57 67 92 9 44 -5 40
-35 -11z"/>
<path d="M1580 1051 c-22 -21 -30 -39 -30 -63 1 -29 2 -31 11 -13 6 11 23 31
38 44 l26 23 -25 -5 -25 -6 24 20 c28 23 58 25 64 4 4 -11 4 -10 3 2 -2 32
-52 28 -86 -6z"/>
<path d="M1732 1041 c-22 -38 -29 -81 -14 -81 4 0 8 9 9 20 1 11 11 33 22 49
12 16 21 34 21 40 0 22 -17 10 -38 -28z"/>
<path d="M2158 1073 c6 -2 18 -2 25 0 6 3 1 5 -13 5 -14 0 -19 -2 -12 -5z"/>
<path d="M2623 1065 c-22 -15 -50 -91 -39 -103 3 -3 6 0 6 7 0 7 15 25 32 42
27 24 29 29 13 29 -18 0 -18 1 3 16 13 9 32 14 43 11 10 -3 17 -1 13 4 -8 14
-47 11 -71 -6z"/>
<path d="M3074 1070 c-48 -19 -82 -96 -47 -107 7 -3 9 3 6 17 -4 15 3 30 23
51 31 33 71 41 59 12 -5 -14 -3 -15 6 -6 14 14 5 43 -13 42 -7 0 -23 -4 -34
-9z"/>
<path d="M3213 1065 c-18 -13 -43 -68 -43 -97 0 -4 15 9 34 30 28 30 32 38 19
43 -12 4 -8 9 15 18 17 7 36 10 41 6 6 -3 11 -1 11 4 0 16 -52 13 -77 -4z"/>
<path d="M3535 1066 c-11 -9 -16 -16 -11 -16 5 0 2 -8 -7 -18 -21 -23 -26 -63
-9 -69 7 -3 10 1 6 10 -3 8 7 28 21 45 32 38 32 72 0 48z"/>
<path d="M3409 1053 c-13 -16 -12 -17 4 -4 16 13 21 21 13 21 -2 0 -10 -8 -17
-17z"/>
<path d="M1015 1040 c-10 -11 -16 -22 -14 -24 2 -2 12 7 22 20 22 29 17 32 -8
4z"/>
<path d="M3489 1033 c-13 -16 -12 -17 4 -4 16 13 21 21 13 21 -2 0 -10 -8 -17
-17z"/>
<path d="M2340 1010 c8 -5 20 -10 25 -10 6 0 3 5 -5 10 -8 5 -19 10 -25 10 -5
0 -3 -5 5 -10z"/>
<path d="M348 523 l-3 -348 -25 -50 c-36 -71 -71 -89 -194 -95 -67 -3 -101 -9
-104 -17 -6 -21 1128 -18 1235 2 162 31 318 100 426 189 157 129 283 370 331
634 l6 32 -119 0 -119 0 -11 -80 c-25 -167 -76 -325 -139 -430 -72 -118 -198
-225 -321 -270 -127 -48 -220 -60 -483 -60 l-248 0 0 420 0 420 -114 0 -115 0
-3 -347z"/>
<path d="M2708 523 l-3 -348 -25 -50 c-36 -72 -85 -95 -202 -95 -72 0 -88 -3
-88 -15 0 -13 70 -15 574 -15 629 0 647 1 807 60 254 92 379 301 366 615 -3
66 -10 137 -16 158 l-12 37 -113 0 -113 0 9 -57 c14 -86 3 -366 -17 -438 -38
-135 -122 -242 -229 -291 -99 -45 -170 -54 -448 -54 l-258 0 0 420 0 420 -114
0 -115 0 -3 -347z"/>
</g>
</svg>
